<?xml version="1.0" encoding="UTF-8"?>
<svg xmlns="http://www.w3.org/2000/svg" version="1.1" viewBox="0 0 160 170">
  <!-- Generator: Adobe Illustrator 29.3.1, SVG Export Plug-In . SVG Version: 2.1.0 Build 151)  -->
  <defs>
    <style>
      .st0 {
        fill: #f69b2d;
      }

      .st1 {
        fill: #004260;
      }
    </style>
  </defs>
  <g id="Uni">
    <g>
      <path class="st1" d="M10,51.1c-1.7-.5-3.5.4-4,2-.5,1.7.4,3.5,2,4,1.7.5,3.5-.4,4-2,.5-1.7-.4-3.5-2-4Z"/>
      <path class="st1" d="M19.1,126.8c-1.4,1-1.7,3-.7,4.4,1,1.4,3,1.7,4.4.7,1.4-1,1.7-3,.7-4.4-1-1.4-3-1.7-4.4-.7Z"/>
      <path class="st1" d="M52.2,152c-1.6-.8-3.5-.2-4.3,1.4-.8,1.5-.2,3.5,1.4,4.3,1.6.8,3.5.2,4.3-1.4.8-1.6.2-3.5-1.4-4.3Z"/>
      <path class="st1" d="M88.8,160.8c-1.8,0-3.2,1.4-3.2,3.2s1.4,3.2,3.2,3.2,3.2-1.4,3.2-3.2-1.4-3.2-3.2-3.2Z"/>
      <path class="st1" d="M30.5,20.9l6.5,7.6c2.1,2.4,5.6,2.5,8.2.2.9-.8,1.6-1.8,2-2.8.8-2.1.4-4-1.2-6l-6-7.1,1.4-1.2-.6-.7-3.7,3.2.6.7,1.4-1.2,5.9,7c1.9,2.2,1.8,5-.4,6.8-2.1,1.8-4.6,1.4-6.5-.8l-6-7,1.4-1.2-.6-.7-4.4,3.8.6.7,1.4-1.2Z"/>
      <path class="st1" d="M48.8,13.7l4.1,7.8-1.6.9.4.8,4.9-2.6-.4-.8-1.6.9-3-5.6c.7-3.2,1.1-3.8,2-4.3.9-.5,1.9,0,2.5,1.1l3.3,6.3-1.6.9.4.8,4.9-2.6-.4-.8-1.6.9-3.5-6.5c-.9-1.7-2.4-2.2-4-1.3-1.4.7-2,1.8-2.6,4.5l-1.3-2.4-.4.2-2.7,2.5.3.6,1.9-1Z"/>
      <polygon class="st1" points="61 7.8 63 7.1 65.8 15.4 64.1 16 64.4 16.9 69.6 15.1 69.3 14.3 67.6 14.8 64.2 5 63.8 5.2 60.8 7.2 61 7.8"/>
      <path class="st1" d="M62.3,2.6c.7-.2,1-.9.8-1.6-.2-.7-.9-1-1.6-.8-.7.2-1,.9-.8,1.6.2.7.9,1,1.6.8Z"/>
      <polygon class="st1" points="69 4.7 75.3 14.1 75.8 14 77.6 2.9 78.6 2.7 78.4 1.8 74.7 2.6 74.9 3.5 76.5 3.2 75.3 10.8 71 4.3 72.6 3.9 72.5 3 67.8 4 68 4.9 69 4.7"/>
      <path class="st1" d="M85.6,12.7c.3,0,.5,0,.8,0,1.4,0,2.3-.4,4-1.5l-.5-.9c-1.3.9-2,1.2-3,1.2-.5,0-.9,0-1.4-.2-1.6-.6-2.7-2.4-2.8-4.8v-.3s2.8-.1,2.8-.1l4.9-.2v-.7c-.1-2.6-2-4.4-4.6-4.3,0,0-.1,0-.2,0-2.7.2-4.7,2.5-4.8,5.5v.5h0c.1,3.2,2.1,5.4,4.8,5.6ZM85.7,2.2c.1,0,.2,0,.3,0,1.4,0,2.4.9,2.5,2.4v.6s-2.8.1-2.8.1h-2.8c.1-1.7,1.2-2.9,2.8-3.1Z"/>
      <path class="st1" d="M98.1,12.1l-2.3-.2.7-6.5c1.5-1.5,2-1.9,2.4-1.8.3,0,.6.3,1,.8l1.6-1.6-.7-.7c-.1-.2-.4-.3-.7-.3-.9,0-1.6.4-3.5,2.4l.3-2.7h-.4s-3.6.5-3.6.5v.7c0,0,2,.2,2,.2l-.9,8.7-1.8-.2v.9c-.1,0,5.9.6,5.9.6v-.9Z"/>
      <path class="st1" d="M102.9,10.5l-1.1-.3-.8,3.4.9.2.2-.8c.5.8,1.5,1.4,2.8,1.7,2.1.5,3.9-.5,4.3-2.4.4-1.5-.2-2.5-2.3-4-2.6-1.9-2.7-2-2.5-3,.3-1,1.2-1.5,2.4-1.2,1.3.3,2.2,1.3,1.9,2.3,0,.2-.2.5-.3.7l1,.3,1.4-3.3-1-.2-.3.8c-.5-.7-1.3-1.2-2.3-1.4-2.2-.5-4,.4-4.4,2.2-.4,1.5.2,2.6,2.3,4,2.3,1.6,2.8,2.3,2.6,3.2-.2.9-1.4,1.4-2.7,1.1-1.5-.4-2.6-1.6-2.3-2.6v-.6Z"/>
      <path class="st1" d="M117.7,3.5c.7.3,1.4,0,1.7-.8.3-.7,0-1.4-.8-1.6-.7-.3-1.4,0-1.6.7-.3.7,0,1.4.7,1.6Z"/>
      <polygon class="st1" points="110.5 15 110.2 15.8 115.4 17.8 115.7 16.9 114 16.3 117.6 6.6 117.2 6.4 113.6 6 113.4 6.7 115.4 7.4 112.3 15.6 110.5 15"/>
      <path class="st1" d="M118.8,17c-.7,1.3-.3,2.5,1,3.1.8.4,1.4.4,3,0v-.8c-1,0-1.4,0-1.8-.2-.7-.4-.8-.8-.4-1.6l3.3-6.5,2.7,1.4.5-1-2.7-1.4,1.5-3.1-1.6-.8-1.5,3-2.1-.5-.3.6,1.9.9-3.4,6.8Z"/>
      <path class="st1" d="M137.6,14.1c.4-.6.3-1.3-.3-1.7-.5-.4-1.3-.2-1.7.3-.4.5-.3,1.3.3,1.7.6.4,1.3.2,1.7-.3Z"/>
      <path class="st1" d="M134.1,11.7c.4-.6.3-1.3-.3-1.7-.5-.4-1.3-.2-1.7.3-.4.5-.3,1.3.3,1.7.6.4,1.3.2,1.7-.3Z"/>
      <path class="st1" d="M131.5,20.1l-3.1-1.2-.9-.4c-1.1-.4-2.4,0-3.1,1-.9,1.4-.6,3,.8,4,.9.7,1.9.8,3.1.5.2,0,.3,0,.5-.1,0,0-.1.1-.1.2-.5.7-.4,1.4.2,1.9.1.1.5.3.8.4l1.6.5.4-.5-1.5-1.1,4.3-6.2c.9-1.3.3-3-1.4-4.2-1.8-1.3-3.8-1.3-4.6-.1,0,0,0,.1-.1.1,0,.1-.1.3-.1.5h.1s2,.7,2,.7l.7-1c.8.1,1.1.2,1.5.5.8.6,1,1.6.5,2.4l-1.6,2.3ZM129.5,23c-.4,0-.8,0-1.1,0-.8,0-1.3-.1-1.7-.4-.8-.6-1-1.5-.4-2.3l.7-1,1.5.6,2.5,1-1.5,2.1Z"/>
      <path class="st1" d="M139.3,21.5l-5,5.6c-1,1.1-.9,2.3.1,3.3.7.6,1.2.8,2.8.9v-.8c-.8-.2-1.1-.3-1.5-.7-.6-.5-.6-1,0-1.7l4.9-5.5,2.3,2,.7-.8-2.3-2,2.3-2.6-1.3-1.2-2.3,2.5-1.9-1-.4.5,1.6,1.4Z"/>
      <path class="st1" d="M23.5,93.3l-.4-2,13.8-2.7.5,2.6c.3,1.6-1,3.1-2.9,3.5-2.1.4-4.2-.9-4.6-3,0-.2,0-.3,0-.7l-.8.2c0,.6,0,.9.1,1.4.6,3,3.1,4.8,5.8,4.3,2.7-.5,4.2-2.8,3.6-5.6l-1.4-6.9-.9.2.3,1.8-14,2.8-.4-1.8-.9.2,1.2,5.9h.9Z"/>
      <path class="st1" d="M37.4,102.9c-.9-2-3.1-3.2-5.3-3-.7,0-1.5.2-2.2.5-2.9,1.3-4.3,4.6-3.1,7.3.9,2,3.1,3.2,5.3,3,.7,0,1.5-.2,2.2-.5,2.9-1.3,4.3-4.6,3.1-7.2ZM32.1,108.7c-2,.4-3.8-.1-4.4-1.5-.8-1.7.6-3.8,3.1-4.9.4-.2.9-.4,1.3-.4,2-.5,3.8,0,4.4,1.4.8,1.7-.6,3.8-3,4.9-.4.2-.9.4-1.3.5Z"/>
      <path class="st1" d="M34.9,119c-.4-.7-.4-1.1.4-1.6l6-4.2,1.7,2.5.9-.6-1.7-2.5,2.8-2-1-1.4-2.8,1.9-1.6-1.4-.5.4,1.2,1.8-6.2,4.3c-1.2.8-1.5,2-.7,3.2.5.7,1,1,2.6,1.5l.3-.7c-.9-.4-1.1-.6-1.4-1Z"/>
      <path class="st1" d="M47.3,122.9l.7.8,2.9-2-.7-.8-.7.5c0-.9-.5-1.7-1.2-2.4-1.6-1.6-3.5-1.8-4.9-.5-1.1,1.1-1.2,2.3-.2,4.6,1.1,2.6,1.2,3.4.5,4.1-.7.7-1.9.4-2.8-.5-1.1-1.1-1.3-2.7-.6-3.4l.5-.5-.8-.8-2.5,2.4.7.7.6-.6c0,.9.5,1.9,1.5,2.9,1.5,1.6,3.5,1.7,4.9.4,1.1-1.1,1.2-2.2.2-4.6-1.2-3-1.2-3.2-.5-3.9.7-.7,1.8-.6,2.7.3.9.9,1.1,2.3.4,2.9-.1.2-.4.3-.7.5Z"/>
      <path class="st1" d="M64.5,123.4l-.4-.3-3.4-1.2-.4.5,1.8,1.2-3.2,4.7c-.5-.9-.8-1.3-1.5-1.7-1-.7-2.2-1-3.4-.9-1.8,0-3.7,1-4.8,2.7-.7,1-1.1,2.1-1.1,3.1v.8c.1,1.3.7,2.5,1.8,3.2,1,.7,2,.8,3.8.5l-1,1.4.4.3.9.3,2.5.9.4-.6-1.8-1.2,9.3-13.8ZM54,135.1c-.3,0-.5,0-.6,0-1.1,0-1.5,0-2.1-.4-1.6-1.1-1.7-3.1-.2-5.4.8-1.2,1.8-1.9,2.9-2.2,1-.3,2,0,3,.5,1.2.8,1.3,1.5.5,2.8l-3.2,4.7c-.1,0-.2,0-.3,0Z"/>
      <path class="st1" d="M67.5,132.1c-1.2-.5-2.3-.5-3.1-.3-.6.2-1.1.6-1.4,1.2,0,.2-.1.4,0,.7h1.4c0,.1.8.2.8.2l.4-1.1c.8,0,1.1,0,1.6.2.9.4,1.3,1.3,1,2.2l-1,2.6-2.8-.4-1.5-.2c-1.2-.2-2.3.5-2.8,1.6-.6,1.5.1,3.1,1.7,3.7.9.3,1.6.4,2.6,0,.3-.1.7-.3,1.1-.5,0,.1,0,.2,0,.2-.3.8-.1,1.5.6,1.8.2,0,.5.1.9.1h1.7c0,.1.3-.5.3-.5l-1.8-.7,2.8-7c0-.2.1-.5.2-.7v-.4c0-1.1-1-2.1-2.5-2.7ZM66,141.1c-.6.2-1.1.4-1.5.4-.5,0-.9,0-1.3-.1-.9-.4-1.3-1.2-.9-2.2l.4-1.1,1.8.3,2.4.4-.9,2.4Z"/>
      <path class="st1" d="M91.3,139.8c.2-1.8-.8-3.1-2.6-3.3-1.5-.1-2.6.4-4.7,2.3,0-1.9-.9-2.9-2.6-3.1-1.5-.1-2.7.4-4.7,2.3l.3-2.7h-.4s-3.6.6-3.6.6v.7c0,0,2,.2,2,.2l-.8,8.7-1.8-.2v.9c0,0,5.4.5,5.4.5v-.9c.1,0-1.8-.2-1.8-.2l.6-6.3c2.4-2.2,3-2.6,4-2.5,1.1,0,1.6.9,1.5,2.2l-.7,7.1-1.8-.2v.9c0,0,5.4.5,5.4.5v-.9c0,0-1.7-.2-1.7-.2l.6-6.3,1.4-1.3c1.2-1,1.8-1.3,2.6-1.2,1.1,0,1.6.9,1.5,2.2l-.7,7.1-1.9-.2v.9c0,0,5.4.5,5.4.5v-.9c0,0-1.7-.2-1.7-.2l.7-7.4Z"/>
      <rect class="st1" x="116.9" y="74.1" width="3.2" height="19.9"/>
      <rect class="st1" x="116.6" y="96.7" width="18.2" height="10.5"/>
      <path class="st1" d="M103.2,69.5h-11.5v39.9h6.5c.6,1.6,2.4,3,4.9,4.3,1.9.9,4.2,1.7,6.8,2.3,1.4.3,3,.6,4.6.9v-6.7c-1.5-.2-3.1-.5-4.6-.8-2.5-.5-4.9-1.3-6.8-2.2-2.9-1.3-4.8-3-4.8-4.9,0-1.8,1.8-3.6,4.8-5,1.9-.9,4.1-1.6,6.8-2.2,1.4-.3,3-.6,4.6-.8v-24.6h-11.4ZM98.5,94.1h-3.2v-19.9h3.2v19.9ZM104.9,94.1h-3.2v-19.9h3.2v19.9ZM111.4,74.1v19.9h-3.2v-19.9h3.2Z"/>
      <rect class="st1" x="122.8" y="74.1" width="6.2" height="19.9"/>
      <rect class="st1" x="131.3" y="74.1" width="3.2" height="19.9"/>
      <path class="st1" d="M146,102.1c0-1.6-1.9-3-4.6-4-1.4-.5-3-1-4.6-1.3v10.6c1.7-.4,3.3-.8,4.6-1.3,2.9-1.1,4.6-2.5,4.6-4Z"/>
      <path class="st1" d="M141.4,94.9c2.7.6,4.9,1.4,6.8,2.2,3.1,1.4,4.8,3.2,4.8,5,0,1.9-2,3.6-4.8,4.9-1.9.9-4.3,1.6-6.8,2.2-1.5.3-3.1.6-4.6.8v6.7c1.6-.3,3.2-.5,4.6-.9,2.6-.6,4.9-1.4,6.8-2.3,2.6-1.2,4.3-2.7,4.9-4.3h6.5v-39.9h-22.9v24.6c1.6.2,3.2.5,4.6.8ZM153.3,74.1h3.2v19.9h-3.2v-19.9ZM146.5,74.1h3.2v19.9h-3.2v-19.9ZM140.1,74.1h3.2v19.9h-3.2v-19.9Z"/>
      <path class="st1" d="M159.3,61.7h0c-.4,0-.6.9-.6,2s0,1,.2,1.4h-4.8c.1-.4.2-.8.2-1.4,0-1.1-.3-1.9-.6-1.9s-.6.8-.6,1.9,0,1,.2,1.4h-4.9c0-.1,0-.2.1-.3,0-.3.1-.7.1-1.1s0-.8-.1-1.1c-.1-.5-.3-.8-.5-.8-.4,0-.6.8-.6,1.9s0,1,.2,1.4h-4.9c.1-.4.2-.8.2-1.4,0-1.1-.3-1.9-.6-1.9s-.4.3-.5.7c0,.3-.1.7-.1,1.2s0,.8.1,1.2c0,0,0,.1,0,.2h-4.7v-7h-1.6c-.2-.5-.5-1.4-.4-2.3.1-5.1-2.6-9.3-8.6-9.5.1-.3.2-.8.2-1.3,0-1.1-.3-1.9-.7-1.9s-.6.8-.6,1.9,0,1,.2,1.3c-6,.2-8.8,4.4-8.6,9.5,0,1-.3,1.9-.4,2.3h-1.6v7h-4.6c0,0,0-.1,0-.2,0-.3.1-.7.1-1.2s0-.9-.1-1.2c-.1-.4-.3-.7-.5-.7-.4,0-.6.9-.6,1.9s0,1,.2,1.4h-4.9c.1-.4.2-.9.2-1.4,0-1.1-.3-1.9-.6-1.9s-.4.3-.5.8c0,.3-.1.7-.1,1.1s0,.8.1,1.1c0,.1,0,.2,0,.3h-4.9c.1-.4.2-.9.2-1.4,0-1.1-.3-1.9-.6-1.9s-.6.9-.6,1.9,0,1,.2,1.4h-5c.1-.4.2-.9.2-1.4,0-1.1-.3-1.9-.6-1.9s-.6.9-.6,1.9,0,1,.2,1.4v2.7h22.9v1.8h22.3v-1.8h22.9v-2.7c.1-.3.2-.8.2-1.4,0-1.1-.3-1.9-.6-1.9ZM114.6,67.7l11.1-6,11.1,6h-22.1Z"/>
      <path class="st1" d="M105.4,102.1c0,1.5,1.7,2.9,4.6,4,1.3.5,2.9.9,4.6,1.3v-10.6c-1.6.3-3.2.8-4.6,1.3-2.7,1-4.6,2.4-4.6,4Z"/>
      <path class="st1" d="M6.9,90.1c-1.7-.5-3.5.4-4,2-.5,1.7.4,3.5,2,4,1.7.5,3.5-.4,4-2,.5-1.7-.4-3.5-2-4Z"/>
    </g>
  </g>
  <g id="Punkte">
    <path id="Human" class="st0" d="M21.8,135.2c3.2-.5,5.4-3.5,4.9-6.8-.5-3.2-3.5-5.4-6.8-4.9-3.2.5-5.4,3.5-4.9,6.8.5,3.2,3.5,5.4,6.7,4.9"/>
  </g>
</svg>