<svg width="100%" height="100%" id="svg" viewBox="0 0 1440 590" xmlns="http://www.w3.org/2000/svg" class="transition duration-300 ease-in-out delay-150"><defs><linearGradient id="gradient" x1="24%" y1="7%" x2="76%" y2="93%"><stop offset="5%" stop-color="#06a7e1"></stop><stop offset="95%" stop-color="#c7eafc"></stop></linearGradient></defs><path d="M 0,600 L 0,150 C 80.1244019138756,165.1961722488038 160.2488038277512,180.39234449760764 252,185 C 343.7511961722488,189.60765550239236 447.12918660287073,183.6267942583732 541,155 C 634.8708133971293,126.37320574162679 719.2344497607656,75.10047846889952 829,76 C 938.7655502392344,76.89952153110048 1073.933014354067,129.9712918660287 1180,151 C 1286.066985645933,172.0287081339713 1363.0334928229665,161.01435406698565 1440,150 L 1440,600 L 0,600 Z" stroke="none" stroke-width="0" fill="url(#gradient)" fill-opacity="0.53" class="transition-all duration-300 ease-in-out delay-150 path-0"></path><defs><linearGradient id="gradient" x1="24%" y1="7%" x2="76%" y2="93%"><stop offset="5%" stop-color="#06a7e1"></stop><stop offset="95%" stop-color="#c7eafc"></stop></linearGradient></defs><path d="M 0,600 L 0,350 C 107.39712918660285,323.9521531100479 214.7942583732057,297.90430622009575 299,307 C 383.2057416267943,316.09569377990425 444.22009569377985,360.334928229665 530,375 C 615.7799043062201,389.665071770335 726.3253588516748,374.75598086124404 845,382 C 963.6746411483252,389.24401913875596 1090.4784688995217,418.64114832535887 1191,417 C 1291.5215311004783,415.35885167464113 1365.7607655502393,382.67942583732054 1440,350 L 1440,600 L 0,600 Z" stroke="none" stroke-width="0" fill="url(#gradient)" fill-opacity="1" class="transition-all duration-300 ease-in-out delay-150 path-1"></path></svg>