<?xml version="1.0" encoding="utf-8"?>
<svg xmlns="http://www.w3.org/2000/svg" viewBox="0 0 500 500">
  <rect x="-0.542" y="0.208" width="501.085" height="499.585" style="fill: rgb(255, 255, 255); paint-order: fill;"/>
  <path d="M 24.375 250.001 L 24.375 444.858 L 219.234 444.858 L 414.092 444.858 L 414.311 364.836 L 414.64 284.703 L 444.635 267.405 C 461.165 257.882 475.068 249.672 475.615 249.126 C 476.053 248.687 462.479 240.148 445.292 230.186 L 414.092 212.233 L 414.092 133.632 L 414.092 55.142 L 219.234 55.142 L 24.375 55.142 L 24.375 250.001 Z M 165.593 250.548 L 165.593 424.06 L 105.712 423.841 L 45.722 423.513 L 45.393 250.219 L 45.175 77.036 L 105.384 77.036 L 165.593 77.036 L 165.593 250.548 Z M 393.293 138.34 C 393.293 172.057 393.074 199.644 392.855 199.644 C 392.308 199.644 181.795 78.24 181.028 77.474 C 180.809 77.255 228.429 77.036 286.887 77.036 L 393.293 77.036 L 393.293 138.34 Z M 393.293 360.565 C 393.293 409.5 392.964 423.185 391.979 423.513 C 391.213 423.841 341.841 423.95 282.399 423.841 L 174.132 423.513 L 282.399 360.896 C 341.841 326.521 391.213 298.276 391.979 298.276 C 392.964 298.168 393.293 311.305 393.293 360.565 Z" style="stroke-width: 0.1px;" id="object-0"/>
</svg>